<mxfile host="Electron" modified="2024-04-26T08:29:06.008Z" agent="Mozilla/5.0 (Windows NT 10.0; Win64; x64) AppleWebKit/537.36 (KHTML, like Gecko) draw.io/22.0.2 Chrome/114.0.5735.289 Electron/25.8.4 Safari/537.36" etag="M_XlO1myDBmfuE0D_4Hf" version="22.0.2" type="device">
  <diagram name="Page-1" id="R8BTd9gdAL2EvxvzwAYk">
    <mxGraphModel dx="1689" dy="1262" grid="1" gridSize="10" guides="1" tooltips="1" connect="1" arrows="1" fold="1" page="1" pageScale="1" pageWidth="1100" pageHeight="850" math="0" shadow="0">
      <root>
        <mxCell id="0" />
        <mxCell id="1" parent="0" />
        <mxCell id="O4BxiltaE3-kbsBUwHD0-1" value="" style="sketch=0;points=[[0,0,0],[0.25,0,0],[0.5,0,0],[0.75,0,0],[1,0,0],[0,1,0],[0.25,1,0],[0.5,1,0],[0.75,1,0],[1,1,0],[0,0.25,0],[0,0.5,0],[0,0.75,0],[1,0.25,0],[1,0.5,0],[1,0.75,0]];outlineConnect=0;fontColor=#232F3E;fillColor=#ED7100;strokeColor=#ffffff;dashed=0;verticalLabelPosition=bottom;verticalAlign=top;align=center;html=1;fontSize=12;fontStyle=0;aspect=fixed;shape=mxgraph.aws4.resourceIcon;resIcon=mxgraph.aws4.ec2;" vertex="1" parent="1">
          <mxGeometry x="200" y="400" width="80" height="80" as="geometry" />
        </mxCell>
        <mxCell id="O4BxiltaE3-kbsBUwHD0-8" style="edgeStyle=orthogonalEdgeStyle;rounded=0;orthogonalLoop=1;jettySize=auto;html=1;exitX=1.009;exitY=0.531;exitDx=0;exitDy=0;exitPerimeter=0;" edge="1" parent="1" source="O4BxiltaE3-kbsBUwHD0-2" target="O4BxiltaE3-kbsBUwHD0-4">
          <mxGeometry relative="1" as="geometry" />
        </mxCell>
        <mxCell id="O4BxiltaE3-kbsBUwHD0-2" value="&lt;h3&gt;&lt;font color=&quot;#ff0000&quot;&gt;Security Group ID&lt;/font&gt;&lt;/h3&gt;" style="fontStyle=0;verticalAlign=top;align=center;spacingTop=-2;fillColor=none;rounded=0;whiteSpace=wrap;html=1;strokeColor=#FF0000;strokeWidth=2;dashed=1;container=1;collapsible=0;expand=0;recursiveResize=0;" vertex="1" parent="1">
          <mxGeometry x="160" y="350" width="160" height="170" as="geometry" />
        </mxCell>
        <mxCell id="O4BxiltaE3-kbsBUwHD0-3" value="&lt;b&gt;&lt;font color=&quot;#333333&quot;&gt;VPC ID&lt;/font&gt;&lt;/b&gt;" style="points=[[0,0],[0.25,0],[0.5,0],[0.75,0],[1,0],[1,0.25],[1,0.5],[1,0.75],[1,1],[0.75,1],[0.5,1],[0.25,1],[0,1],[0,0.75],[0,0.5],[0,0.25]];outlineConnect=0;gradientColor=none;html=1;whiteSpace=wrap;fontSize=12;fontStyle=0;container=1;pointerEvents=0;collapsible=0;recursiveResize=0;shape=mxgraph.aws4.group;grIcon=mxgraph.aws4.group_vpc;strokeColor=#248814;fillColor=none;verticalAlign=top;align=left;spacingLeft=30;fontColor=#AAB7B8;dashed=0;" vertex="1" parent="1">
          <mxGeometry x="120" y="320" width="240" height="240" as="geometry" />
        </mxCell>
        <mxCell id="O4BxiltaE3-kbsBUwHD0-12" style="edgeStyle=orthogonalEdgeStyle;rounded=0;orthogonalLoop=1;jettySize=auto;html=1;" edge="1" parent="1" source="O4BxiltaE3-kbsBUwHD0-4" target="O4BxiltaE3-kbsBUwHD0-10">
          <mxGeometry relative="1" as="geometry">
            <Array as="points">
              <mxPoint x="439" y="540" />
            </Array>
          </mxGeometry>
        </mxCell>
        <mxCell id="O4BxiltaE3-kbsBUwHD0-14" style="edgeStyle=orthogonalEdgeStyle;rounded=0;orthogonalLoop=1;jettySize=auto;html=1;" edge="1" parent="1" source="O4BxiltaE3-kbsBUwHD0-4" target="O4BxiltaE3-kbsBUwHD0-9">
          <mxGeometry relative="1" as="geometry">
            <Array as="points">
              <mxPoint x="439" y="335" />
            </Array>
          </mxGeometry>
        </mxCell>
        <mxCell id="O4BxiltaE3-kbsBUwHD0-4" value="" style="sketch=0;outlineConnect=0;fontColor=#232F3E;gradientColor=none;fillColor=#7AA116;strokeColor=none;dashed=0;verticalLabelPosition=bottom;verticalAlign=top;align=center;html=1;fontSize=12;fontStyle=0;aspect=fixed;pointerEvents=1;shape=mxgraph.aws4.policy;" vertex="1" parent="1">
          <mxGeometry x="400" y="406.5" width="78" height="67" as="geometry" />
        </mxCell>
        <mxCell id="O4BxiltaE3-kbsBUwHD0-5" value="&lt;h5&gt;HTTPS-Lambda-Automation-Policy&lt;/h5&gt;" style="text;html=1;align=center;verticalAlign=middle;resizable=0;points=[];autosize=1;strokeColor=none;fillColor=none;" vertex="1" parent="1">
          <mxGeometry x="440" y="395" width="190" height="60" as="geometry" />
        </mxCell>
        <mxCell id="O4BxiltaE3-kbsBUwHD0-7" style="edgeStyle=orthogonalEdgeStyle;rounded=0;orthogonalLoop=1;jettySize=auto;html=1;entryX=0.998;entryY=0.533;entryDx=0;entryDy=0;entryPerimeter=0;" edge="1" parent="1" source="O4BxiltaE3-kbsBUwHD0-4" target="O4BxiltaE3-kbsBUwHD0-2">
          <mxGeometry relative="1" as="geometry" />
        </mxCell>
        <mxCell id="O4BxiltaE3-kbsBUwHD0-15" style="edgeStyle=orthogonalEdgeStyle;rounded=0;orthogonalLoop=1;jettySize=auto;html=1;" edge="1" parent="1" source="O4BxiltaE3-kbsBUwHD0-9" target="O4BxiltaE3-kbsBUwHD0-4">
          <mxGeometry relative="1" as="geometry" />
        </mxCell>
        <mxCell id="O4BxiltaE3-kbsBUwHD0-9" value="" style="outlineConnect=0;dashed=0;verticalLabelPosition=bottom;verticalAlign=top;align=center;html=1;shape=mxgraph.aws3.role;fillColor=#759C3E;gradientColor=none;" vertex="1" parent="1">
          <mxGeometry x="520" y="310" width="70" height="50" as="geometry" />
        </mxCell>
        <mxCell id="O4BxiltaE3-kbsBUwHD0-13" style="edgeStyle=orthogonalEdgeStyle;rounded=0;orthogonalLoop=1;jettySize=auto;html=1;" edge="1" parent="1" source="O4BxiltaE3-kbsBUwHD0-10" target="O4BxiltaE3-kbsBUwHD0-4">
          <mxGeometry relative="1" as="geometry">
            <Array as="points">
              <mxPoint x="439" y="540" />
            </Array>
          </mxGeometry>
        </mxCell>
        <mxCell id="O4BxiltaE3-kbsBUwHD0-10" value="" style="outlineConnect=0;dashed=0;verticalLabelPosition=bottom;verticalAlign=top;align=center;html=1;shape=mxgraph.aws3.role;fillColor=#759C3E;gradientColor=none;" vertex="1" parent="1">
          <mxGeometry x="520" y="520" width="70" height="50" as="geometry" />
        </mxCell>
        <mxCell id="O4BxiltaE3-kbsBUwHD0-16" value="Invoke-https-role" style="text;html=1;align=center;verticalAlign=middle;resizable=0;points=[];autosize=1;strokeColor=none;fillColor=none;fontColor=#009900;" vertex="1" parent="1">
          <mxGeometry x="500" y="280" width="110" height="30" as="geometry" />
        </mxCell>
        <mxCell id="O4BxiltaE3-kbsBUwHD0-17" value="Revoke-https-role" style="text;html=1;align=center;verticalAlign=middle;resizable=0;points=[];autosize=1;strokeColor=none;fillColor=none;fontColor=#009900;" vertex="1" parent="1">
          <mxGeometry x="490" y="570" width="120" height="30" as="geometry" />
        </mxCell>
        <mxCell id="O4BxiltaE3-kbsBUwHD0-24" style="edgeStyle=orthogonalEdgeStyle;rounded=0;orthogonalLoop=1;jettySize=auto;html=1;" edge="1" parent="1" source="O4BxiltaE3-kbsBUwHD0-18" target="O4BxiltaE3-kbsBUwHD0-9">
          <mxGeometry relative="1" as="geometry" />
        </mxCell>
        <mxCell id="O4BxiltaE3-kbsBUwHD0-18" value="" style="outlineConnect=0;dashed=0;verticalLabelPosition=bottom;verticalAlign=top;align=center;html=1;shape=mxgraph.aws3.lambda_function;fillColor=#F58534;gradientColor=none;" vertex="1" parent="1">
          <mxGeometry x="680" y="310" width="50" height="50" as="geometry" />
        </mxCell>
        <mxCell id="O4BxiltaE3-kbsBUwHD0-23" style="edgeStyle=orthogonalEdgeStyle;rounded=0;orthogonalLoop=1;jettySize=auto;html=1;" edge="1" parent="1" source="O4BxiltaE3-kbsBUwHD0-19">
          <mxGeometry relative="1" as="geometry">
            <mxPoint x="590" y="544.9999999999999" as="targetPoint" />
          </mxGeometry>
        </mxCell>
        <mxCell id="O4BxiltaE3-kbsBUwHD0-19" value="" style="outlineConnect=0;dashed=0;verticalLabelPosition=bottom;verticalAlign=top;align=center;html=1;shape=mxgraph.aws3.lambda_function;fillColor=#F58534;gradientColor=none;" vertex="1" parent="1">
          <mxGeometry x="680" y="520" width="50" height="50" as="geometry" />
        </mxCell>
        <mxCell id="O4BxiltaE3-kbsBUwHD0-20" value="Invoke-https-protocol.py" style="text;html=1;align=center;verticalAlign=middle;resizable=0;points=[];autosize=1;strokeColor=none;fillColor=none;" vertex="1" parent="1">
          <mxGeometry x="630" y="280" width="150" height="30" as="geometry" />
        </mxCell>
        <mxCell id="O4BxiltaE3-kbsBUwHD0-21" value="Revoke-https-protocol.py" style="text;html=1;align=center;verticalAlign=middle;resizable=0;points=[];autosize=1;strokeColor=none;fillColor=none;" vertex="1" parent="1">
          <mxGeometry x="630" y="570" width="160" height="30" as="geometry" />
        </mxCell>
        <mxCell id="O4BxiltaE3-kbsBUwHD0-22" style="edgeStyle=orthogonalEdgeStyle;rounded=0;orthogonalLoop=1;jettySize=auto;html=1;entryX=0;entryY=0.5;entryDx=0;entryDy=0;entryPerimeter=0;" edge="1" parent="1" source="O4BxiltaE3-kbsBUwHD0-10" target="O4BxiltaE3-kbsBUwHD0-19">
          <mxGeometry relative="1" as="geometry" />
        </mxCell>
        <mxCell id="O4BxiltaE3-kbsBUwHD0-25" style="edgeStyle=orthogonalEdgeStyle;rounded=0;orthogonalLoop=1;jettySize=auto;html=1;entryX=0;entryY=0.5;entryDx=0;entryDy=0;entryPerimeter=0;" edge="1" parent="1" source="O4BxiltaE3-kbsBUwHD0-9" target="O4BxiltaE3-kbsBUwHD0-18">
          <mxGeometry relative="1" as="geometry" />
        </mxCell>
        <mxCell id="O4BxiltaE3-kbsBUwHD0-26" value="" style="sketch=0;points=[[0,0,0],[0.25,0,0],[0.5,0,0],[0.75,0,0],[1,0,0],[0,1,0],[0.25,1,0],[0.5,1,0],[0.75,1,0],[1,1,0],[0,0.25,0],[0,0.5,0],[0,0.75,0],[1,0.25,0],[1,0.5,0],[1,0.75,0]];outlineConnect=0;fontColor=#232F3E;fillColor=#E7157B;strokeColor=#ffffff;dashed=0;verticalLabelPosition=bottom;verticalAlign=top;align=center;html=1;fontSize=12;fontStyle=0;aspect=fixed;shape=mxgraph.aws4.resourceIcon;resIcon=mxgraph.aws4.eventbridge;" vertex="1" parent="1">
          <mxGeometry x="803.5" y="342" width="53" height="53" as="geometry" />
        </mxCell>
        <mxCell id="O4BxiltaE3-kbsBUwHD0-27" value="" style="sketch=0;points=[[0,0,0],[0.25,0,0],[0.5,0,0],[0.75,0,0],[1,0,0],[0,1,0],[0.25,1,0],[0.5,1,0],[0.75,1,0],[1,1,0],[0,0.25,0],[0,0.5,0],[0,0.75,0],[1,0.25,0],[1,0.5,0],[1,0.75,0]];outlineConnect=0;fontColor=#232F3E;fillColor=#E7157B;strokeColor=#ffffff;dashed=0;verticalLabelPosition=bottom;verticalAlign=top;align=center;html=1;fontSize=12;fontStyle=0;aspect=fixed;shape=mxgraph.aws4.resourceIcon;resIcon=mxgraph.aws4.eventbridge;" vertex="1" parent="1">
          <mxGeometry x="803.5" y="480" width="53" height="53" as="geometry" />
        </mxCell>
        <mxCell id="O4BxiltaE3-kbsBUwHD0-30" value="Scheduled Trigger" style="text;html=1;align=center;verticalAlign=middle;resizable=0;points=[];autosize=1;strokeColor=none;fillColor=none;" vertex="1" parent="1">
          <mxGeometry x="770" y="320" width="120" height="30" as="geometry" />
        </mxCell>
        <mxCell id="O4BxiltaE3-kbsBUwHD0-31" value="Scheduled Trigger" style="text;html=1;align=center;verticalAlign=middle;resizable=0;points=[];autosize=1;strokeColor=none;fillColor=none;" vertex="1" parent="1">
          <mxGeometry x="770" y="455" width="120" height="30" as="geometry" />
        </mxCell>
        <mxCell id="O4BxiltaE3-kbsBUwHD0-33" value="" style="endArrow=classic;startArrow=classic;html=1;rounded=0;exitX=1;exitY=0.5;exitDx=0;exitDy=0;exitPerimeter=0;entryX=0;entryY=0.5;entryDx=0;entryDy=0;entryPerimeter=0;" edge="1" parent="1" source="O4BxiltaE3-kbsBUwHD0-18" target="O4BxiltaE3-kbsBUwHD0-26">
          <mxGeometry width="50" height="50" relative="1" as="geometry">
            <mxPoint x="650" y="420" as="sourcePoint" />
            <mxPoint x="700" y="370" as="targetPoint" />
          </mxGeometry>
        </mxCell>
        <mxCell id="O4BxiltaE3-kbsBUwHD0-34" value="" style="endArrow=classic;startArrow=classic;html=1;rounded=0;exitX=1;exitY=0.5;exitDx=0;exitDy=0;exitPerimeter=0;entryX=0;entryY=0.5;entryDx=0;entryDy=0;entryPerimeter=0;" edge="1" parent="1" source="O4BxiltaE3-kbsBUwHD0-19" target="O4BxiltaE3-kbsBUwHD0-27">
          <mxGeometry width="50" height="50" relative="1" as="geometry">
            <mxPoint x="706" y="480" as="sourcePoint" />
            <mxPoint x="780" y="505" as="targetPoint" />
          </mxGeometry>
        </mxCell>
      </root>
    </mxGraphModel>
  </diagram>
</mxfile>
